<svg xmlns="http://www.w3.org/2000/svg" width="80" height="40.744" viewBox="0 0 21.167 10.78"><g style="line-height:1.25"><path d="M5.561 10.582c.14-.02.211-.118.192-.256L5.57 9.033c-.02-.137.054-.235.192-.254l.434-.061c.137-.02.21-.117.191-.254l-.151-1.077c-.02-.138-.117-.211-.254-.192l-.435.061c-.138.02-.235-.054-.255-.191L4.62 2.27c-.02-.137-.117-.21-.254-.191l-1.378.193a.24.24 0 00-.178.112L0 7.97l.192 1.366c.02.137.116.21.254.191L3.48 9.1c.139-.02.235.054.254.192l.182 1.293c.02.138.117.212.254.192zm-3.57-2.826c-.138.02-.203-.072-.142-.201l1.178-2.381c.142-.288.193-.583.19-.609l.052-.007c-.052.389-.015 1.32.104 2.167l.115.82zm9.188 2.17c1.877-.264 2.928-1.503 2.65-3.485l-.365-2.594c-.278-1.981-1.63-2.883-3.508-2.619l-.15.021c-1.878.264-2.928 1.503-2.65 3.485l.365 2.593c.278 1.982 1.623 2.884 3.507 2.62zm-.386-1.654c-.644.09-1.309-.311-1.425-1.137L8.985 4.41c-.116-.826.406-1.396 1.056-1.487l.15-.021c.65-.092 1.31.31 1.426 1.138l.382 2.725c.117.826-.406 1.396-1.055 1.487zm9.544.233c.138-.02.21-.118.191-.255l-.181-1.293c-.02-.138.054-.235.191-.255l.433-.06c.14-.02.212-.117.193-.255l-.151-1.077c-.02-.138-.117-.21-.256-.191l-.433.06c-.137.02-.235-.053-.254-.191L19.396.195c-.019-.138-.116-.211-.254-.192l-1.379.194a.24.24 0 00-.178.112l-2.81 5.583.192 1.365c.02.138.117.211.255.192l3.031-.426c.14-.02.236.053.256.191l.182 1.294c.02.139.116.212.254.193zm-3.57-2.826c-.138.02-.205-.072-.142-.2l1.178-2.382c.14-.287.193-.583.19-.609l.052-.007c-.053.39-.016 1.32.103 2.168l.116.82z" style="-inkscape-font-specification:'Politics Head'" opacity=".998" aria-label="404" font-weight="400" font-size="13.568" font-family="'Politics Head'" stroke-width=".339" fill="#fafafa"/></g></svg>