<svg xmlns="http://www.w3.org/2000/svg" width="80" height="41.612" viewBox="0 0 21.167 11.01"><g aria-label="501" style="line-height:1.25" font-weight="400" font-size="10.583" font-family="Politics Head" fill="#fafafa" stroke-width=".265"><path d="M3.813 10.95c1.642-.23 2.804-1.514 2.533-3.446-.247-1.754-1.412-2.556-3.008-2.332a2.617 2.617 0 00-.87.292c-.13.079-.213.023-.234-.13l-.14-.999c-.02-.139.054-.237.193-.257l2.7-.38c.14-.019.213-.117.194-.256l-.174-1.238c-.02-.139-.118-.213-.257-.193l-4.553.64c-.14.02-.213.118-.194.257l.579 4.117c.027.192.204.302.41.273l.959-.135a2.639 2.639 0 011.132-.443c.828-.116 1.393.257 1.511 1.097.106.755-.383 1.357-1.051 1.45l-.14.02c-.489.07-1.012-.1-1.238-.359-.056-.066-.073-.09-.133-.082-.06.008-.144.08-.175.098l-1.124.692c-.056.034-.097.08-.091.12.003.027.026.044.043.069.661.912 1.824 1.31 2.95 1.151zM11.312 9.897c1.893-.266 2.953-1.515 2.672-3.514l-.368-2.614c-.28-2-1.643-2.908-3.536-2.642l-.153.021c-1.893.266-2.952 1.516-2.671 3.514l.367 2.615c.281 1.999 1.637 2.908 3.537 2.641zm-.39-1.666c-.648.09-1.32-.314-1.436-1.148L9.1 4.336c-.118-.834.41-1.408 1.065-1.5l.152-.021c.655-.092 1.32.314 1.437 1.148l.386 2.747c.117.834-.41 1.407-1.065 1.5zM20.97 8.405c.14-.02.213-.118.194-.257L20.99 6.91c-.02-.139-.118-.213-.257-.193l-1.284.18c-.14.02-.237-.054-.257-.193L18.272.15c-.017-.119-.078-.164-.197-.148l-.913.129c-.146.02-.234.066-.313.179l-1.944 2.973a.232.232 0 00-.05.169c.008.06.027.097.102.154l.981.74c.06.045.11.058.17.05.06-.008.097-.027.148-.095l.484-.642c.13-.173.228-.437.253-.697l.053-.007c-.04.289-.097 1.235.048 2.268l.245 1.74c.02.14-.054.237-.193.257l-1.284.18c-.14.02-.213.118-.194.257l.174 1.238c.02.139.118.213.257.193z" style="-inkscape-font-specification:'Politics Head'"/></g></svg>