<svg xmlns="http://www.w3.org/2000/svg" width="66.78" height="72.012" viewBox="0 0 66.78 72.012"><path d="M14,16H9V14h5V9.87a4,4,0,1,1,2,0V14h5v2H16V31.95A10,10,0,0,0,23.66,27L20.2,25l8.2-2.2-2.9,5a12,12,0,0,1-21,0l-2.89-5L9.81,25,6.34,27A10,10,0,0,0,14,31.95ZM54,56H49V54h5V49.87a4,4,0,1,1,2,0V54h5v2H56V71.95A10,10,0,0,0,63.66,67l-3.47-2,8.2-2.2-2.88,5a12,12,0,0,1-21.02,0l-2.88-5,8.2,2.2-3.47,2A10,10,0,0,0,54,71.95ZM15,62a2,2,0,1,1,2-2A2,2,0,0,1,15,62ZM55,22a2,2,0,1,1,2-2A2,2,0,0,1,55,22ZM15,8a2,2,0,1,0-2-2A2,2,0,0,0,15,8ZM55,48a2,2,0,1,0-2-2A2,2,0,0,0,55,48Z" transform="translate(-1.61 -1.997)" fill="#f3f3f3"/></svg>