<svg xmlns="http://www.w3.org/2000/svg" width="130.276" height="171.521" viewBox="-0.567 -0.567 130.276 171.521" overflow="visible"><path fill="#777" d="M53.565 12.125c-14.248 0-25.147 1.39-33.31 3.194V-.567H9.945V18.23C2.459 20.896-.567 23.426-.567 23.426s4.312-.361 10.512.131v97.745c-2.418 4.448-3.968 9.744-3.968 16.141 0 17.646 8.528 33.511 8.528 33.511s-2.579-9.919-2.532-16.853c.152-22.449 9.336-34.371 48.93-40.852 16.963-2.775 69.205-6.346 68.804-45.406-.239-23.587-14.867-55.718-76.142-55.718zm-21.018 89.03c-3.504 2.151-7.999 4.748-12.292 8.21V25.063c15.4 3.365 33.708 12.898 33.707 39.21.001 10.663-1.387 24.588-21.415 36.882z"/></svg>